<svg width="457" height="457" viewBox="0 0 457 457" fill="none" xmlns="http://www.w3.org/2000/svg">
<rect width="457" height="457" fill="#EA1311"/>
<circle cx="228.5" cy="228.5" r="228.5" fill="white"/>
<circle cx="228.5" cy="228.5" r="218.5" fill="#EA1311"/>
<circle cx="229" cy="228" r="208" fill="white"/>
<path d="M98.2944 376V325.6H116.798C120.83 325.6 124.142 326.296 126.734 327.688C129.374 329.032 131.342 330.88 132.638 333.232C133.934 335.536 134.582 338.104 134.582 340.936C134.582 344.008 133.766 346.816 132.134 349.36C130.55 351.904 128.054 353.752 124.646 354.904L135.086 376H124.502L115.142 356.128H107.51V376H98.2944ZM107.51 349.36H116.222C119.294 349.36 121.55 348.616 122.99 347.128C124.43 345.64 125.15 343.672 125.15 341.224C125.15 338.824 124.43 336.904 122.99 335.464C121.598 334.024 119.318 333.304 116.15 333.304H107.51V349.36ZM158.11 376.864C154.51 376.864 151.318 376.096 148.534 374.56C145.75 373.024 143.566 370.864 141.982 368.08C140.398 365.296 139.606 362.08 139.606 358.432C139.606 354.736 140.374 351.448 141.91 348.568C143.494 345.688 145.654 343.456 148.39 341.872C151.174 340.24 154.438 339.424 158.182 339.424C161.686 339.424 164.782 340.192 167.47 341.728C170.158 343.264 172.246 345.376 173.734 348.064C175.27 350.704 176.038 353.656 176.038 356.92C176.038 357.448 176.014 358 175.966 358.576C175.966 359.152 175.942 359.752 175.894 360.376H148.75C148.942 363.16 149.902 365.344 151.63 366.928C153.406 368.512 155.542 369.304 158.038 369.304C159.91 369.304 161.47 368.896 162.718 368.08C164.014 367.216 164.974 366.112 165.598 364.768H174.958C174.286 367.024 173.158 369.088 171.574 370.96C170.038 372.784 168.118 374.224 165.814 375.28C163.558 376.336 160.99 376.864 158.11 376.864ZM158.182 346.912C155.926 346.912 153.934 347.56 152.206 348.856C150.478 350.104 149.374 352.024 148.894 354.616H166.678C166.534 352.264 165.67 350.392 164.086 349C162.502 347.608 160.534 346.912 158.182 346.912ZM200.205 376.864C196.845 376.864 193.845 376.048 191.205 374.416C188.565 372.784 186.477 370.552 184.941 367.72C183.405 364.888 182.637 361.672 182.637 358.072C182.637 354.472 183.405 351.28 184.941 348.496C186.477 345.664 188.565 343.456 191.205 341.872C193.845 340.24 196.845 339.424 200.205 339.424C202.893 339.424 205.245 339.928 207.261 340.936C209.277 341.944 210.909 343.36 212.157 345.184V324.16H221.373V376H213.165L212.157 370.888C211.005 372.472 209.469 373.864 207.549 375.064C205.677 376.264 203.229 376.864 200.205 376.864ZM202.149 368.8C205.125 368.8 207.549 367.816 209.421 365.848C211.341 363.832 212.301 361.264 212.301 358.144C212.301 355.024 211.341 352.48 209.421 350.512C207.549 348.496 205.125 347.488 202.149 347.488C199.221 347.488 196.797 348.472 194.877 350.44C192.957 352.408 191.997 354.952 191.997 358.072C191.997 361.192 192.957 363.76 194.877 365.776C196.797 367.792 199.221 368.8 202.149 368.8ZM265.338 376.864C261.642 376.864 258.378 376.24 255.546 374.992C252.714 373.696 250.482 371.872 248.85 369.52C247.218 367.12 246.378 364.216 246.33 360.808H256.05C256.146 363.16 256.986 365.152 258.57 366.784C260.202 368.368 262.434 369.16 265.266 369.16C267.714 369.16 269.658 368.584 271.098 367.432C272.538 366.232 273.258 364.648 273.258 362.68C273.258 360.616 272.61 359.008 271.314 357.856C270.066 356.704 268.386 355.768 266.274 355.048C264.162 354.328 261.906 353.56 259.506 352.744C255.618 351.4 252.642 349.672 250.578 347.56C248.562 345.448 247.554 342.64 247.554 339.136C247.506 336.16 248.202 333.616 249.642 331.504C251.13 329.344 253.146 327.688 255.69 326.536C258.234 325.336 261.162 324.736 264.474 324.736C267.834 324.736 270.786 325.336 273.33 326.536C275.922 327.736 277.938 329.416 279.378 331.576C280.866 333.736 281.658 336.304 281.754 339.28H271.89C271.842 337.504 271.146 335.944 269.802 334.6C268.506 333.208 266.682 332.512 264.33 332.512C262.314 332.464 260.61 332.968 259.218 334.024C257.874 335.032 257.202 336.52 257.202 338.488C257.202 340.168 257.73 341.512 258.786 342.52C259.842 343.48 261.282 344.296 263.106 344.968C264.93 345.64 267.018 346.36 269.37 347.128C271.866 347.992 274.146 349 276.21 350.152C278.274 351.304 279.93 352.84 281.178 354.76C282.426 356.632 283.05 359.056 283.05 362.032C283.05 364.672 282.378 367.12 281.034 369.376C279.69 371.632 277.698 373.456 275.058 374.848C272.418 376.192 269.178 376.864 265.338 376.864ZM306.787 376C303.043 376 300.043 375.088 297.787 373.264C295.531 371.44 294.403 368.2 294.403 363.544V347.992H288.283V340.288H294.403L295.483 330.712H303.619V340.288H313.267V347.992H303.619V363.616C303.619 365.344 303.979 366.544 304.699 367.216C305.467 367.84 306.763 368.152 308.587 368.152H313.051V376H306.787ZM333.492 376.864C330.42 376.864 327.9 376.384 325.932 375.424C323.964 374.416 322.5 373.096 321.54 371.464C320.58 369.832 320.1 368.032 320.1 366.064C320.1 362.752 321.396 360.064 323.988 358C326.58 355.936 330.468 354.904 335.652 354.904H344.724V354.04C344.724 351.592 344.028 349.792 342.636 348.64C341.244 347.488 339.516 346.912 337.452 346.912C335.58 346.912 333.948 347.368 332.556 348.28C331.164 349.144 330.3 350.44 329.964 352.168H320.964C321.204 349.576 322.068 347.32 323.556 345.4C325.092 343.48 327.06 342.016 329.46 341.008C331.86 339.952 334.548 339.424 337.524 339.424C342.612 339.424 346.62 340.696 349.548 343.24C352.476 345.784 353.94 349.384 353.94 354.04V376H346.092L345.228 370.24C344.172 372.16 342.684 373.744 340.764 374.992C338.892 376.24 336.468 376.864 333.492 376.864ZM335.58 369.664C338.22 369.664 340.26 368.8 341.7 367.072C343.188 365.344 344.124 363.208 344.508 360.664H336.66C334.212 360.664 332.46 361.12 331.404 362.032C330.348 362.896 329.82 363.976 329.82 365.272C329.82 366.664 330.348 367.744 331.404 368.512C332.46 369.28 333.852 369.664 335.58 369.664ZM362.735 376V340.288H370.943L371.807 346.984C373.103 344.68 374.855 342.856 377.063 341.512C379.319 340.12 381.959 339.424 384.983 339.424V349.144H382.391C380.375 349.144 378.575 349.456 376.991 350.08C375.407 350.704 374.159 351.784 373.247 353.32C372.383 354.856 371.951 356.992 371.951 359.728V376H362.735Z" fill="#E81010"/>
<path d="M139.524 407V390.9H150.035V393.269H142.468V397.685H149.345V399.985H142.468V404.631H150.035V407H139.524ZM152.499 401.572V399.111H162.136V401.572H152.499ZM171.643 407.276C170.785 407.276 170.033 407.115 169.389 406.793C168.745 406.471 168.224 406.019 167.825 405.436L167.503 407H164.881V390.44H167.825V397.225C168.193 396.719 168.676 396.274 169.274 395.891C169.888 395.508 170.677 395.316 171.643 395.316C172.717 395.316 173.675 395.577 174.518 396.098C175.362 396.619 176.029 397.332 176.519 398.237C177.01 399.142 177.255 400.169 177.255 401.319C177.255 402.469 177.01 403.496 176.519 404.401C176.029 405.29 175.362 405.996 174.518 406.517C173.675 407.023 172.717 407.276 171.643 407.276ZM171.022 404.7C171.958 404.7 172.732 404.386 173.345 403.757C173.959 403.128 174.265 402.316 174.265 401.319C174.265 400.322 173.959 399.502 173.345 398.858C172.732 398.214 171.958 397.892 171.022 397.892C170.072 397.892 169.29 398.214 168.676 398.858C168.078 399.487 167.779 400.299 167.779 401.296C167.779 402.293 168.078 403.113 168.676 403.757C169.29 404.386 170.072 404.7 171.022 404.7ZM181.472 393.821C180.935 393.821 180.491 393.66 180.138 393.338C179.801 393.016 179.632 392.61 179.632 392.119C179.632 391.628 179.801 391.23 180.138 390.923C180.491 390.601 180.935 390.44 181.472 390.44C182.009 390.44 182.446 390.601 182.783 390.923C183.136 391.23 183.312 391.628 183.312 392.119C183.312 392.61 183.136 393.016 182.783 393.338C182.446 393.66 182.009 393.821 181.472 393.821ZM180 407V395.592H182.944V407H180ZM186.017 407V390.44H188.961V400.215L193.009 395.592H196.505L191.836 400.79L197.264 407H193.584L188.961 401.273V407H186.017ZM203.689 407.276C202.539 407.276 201.519 407.031 200.63 406.54C199.741 406.049 199.043 405.359 198.537 404.47C198.031 403.581 197.778 402.553 197.778 401.388C197.778 400.207 198.023 399.157 198.514 398.237C199.02 397.317 199.71 396.604 200.584 396.098C201.473 395.577 202.516 395.316 203.712 395.316C204.831 395.316 205.82 395.561 206.679 396.052C207.538 396.543 208.205 397.217 208.68 398.076C209.171 398.919 209.416 399.862 209.416 400.905C209.416 401.074 209.408 401.25 209.393 401.434C209.393 401.618 209.385 401.81 209.37 402.009H200.699C200.76 402.898 201.067 403.596 201.619 404.102C202.186 404.608 202.869 404.861 203.666 404.861C204.264 404.861 204.762 404.731 205.161 404.47C205.575 404.194 205.882 403.841 206.081 403.412H209.071C208.856 404.133 208.496 404.792 207.99 405.39C207.499 405.973 206.886 406.433 206.15 406.77C205.429 407.107 204.609 407.276 203.689 407.276ZM203.712 397.708C202.991 397.708 202.355 397.915 201.803 398.329C201.251 398.728 200.898 399.341 200.745 400.169H206.426C206.38 399.418 206.104 398.82 205.598 398.375C205.092 397.93 204.463 397.708 203.712 397.708ZM221.305 407.276C220.324 407.276 219.519 407.123 218.89 406.816C218.262 406.494 217.794 406.072 217.487 405.551C217.181 405.03 217.027 404.455 217.027 403.826C217.027 402.768 217.441 401.909 218.269 401.25C219.097 400.591 220.339 400.261 221.995 400.261H224.893V399.985C224.893 399.203 224.671 398.628 224.226 398.26C223.782 397.892 223.23 397.708 222.57 397.708C221.972 397.708 221.451 397.854 221.006 398.145C220.562 398.421 220.286 398.835 220.178 399.387H217.303C217.38 398.559 217.656 397.838 218.131 397.225C218.622 396.612 219.251 396.144 220.017 395.822C220.784 395.485 221.643 395.316 222.593 395.316C224.219 395.316 225.499 395.722 226.434 396.535C227.37 397.348 227.837 398.498 227.837 399.985V407H225.33L225.054 405.16C224.717 405.773 224.242 406.279 223.628 406.678C223.03 407.077 222.256 407.276 221.305 407.276ZM221.972 404.976C222.816 404.976 223.467 404.7 223.927 404.148C224.403 403.596 224.702 402.914 224.824 402.101H222.317C221.535 402.101 220.976 402.247 220.638 402.538C220.301 402.814 220.132 403.159 220.132 403.573C220.132 404.018 220.301 404.363 220.638 404.608C220.976 404.853 221.42 404.976 221.972 404.976ZM230.647 407V395.592H233.246L233.476 397.524C233.829 396.849 234.335 396.313 234.994 395.914C235.669 395.515 236.458 395.316 237.363 395.316C238.774 395.316 239.87 395.761 240.652 396.65C241.434 397.539 241.825 398.843 241.825 400.56V407H238.881V400.836C238.881 399.855 238.682 399.103 238.283 398.582C237.884 398.061 237.263 397.8 236.42 397.8C235.592 397.8 234.91 398.091 234.373 398.674C233.852 399.257 233.591 400.069 233.591 401.112V407H230.647ZM249.884 407.276C248.811 407.276 247.852 407.015 247.009 406.494C246.166 405.973 245.499 405.26 245.008 404.355C244.517 403.45 244.272 402.423 244.272 401.273C244.272 400.123 244.517 399.103 245.008 398.214C245.499 397.309 246.166 396.604 247.009 396.098C247.852 395.577 248.811 395.316 249.884 395.316C250.743 395.316 251.494 395.477 252.138 395.799C252.782 396.121 253.303 396.573 253.702 397.156V390.44H256.646V407H254.024L253.702 405.367C253.334 405.873 252.843 406.318 252.23 406.701C251.632 407.084 250.85 407.276 249.884 407.276ZM250.505 404.7C251.456 404.7 252.23 404.386 252.828 403.757C253.441 403.113 253.748 402.293 253.748 401.296C253.748 400.299 253.441 399.487 252.828 398.858C252.23 398.214 251.456 397.892 250.505 397.892C249.57 397.892 248.795 398.206 248.182 398.835C247.569 399.464 247.262 400.276 247.262 401.273C247.262 402.27 247.569 403.09 248.182 403.734C248.795 404.378 249.57 404.7 250.505 404.7ZM265.193 407V390.9H271.15C272.438 390.9 273.504 391.115 274.347 391.544C275.191 391.973 275.819 392.564 276.233 393.315C276.647 394.066 276.854 394.91 276.854 395.845C276.854 396.734 276.655 397.555 276.256 398.306C275.858 399.042 275.237 399.64 274.393 400.1C273.55 400.545 272.469 400.767 271.15 400.767H268.137V407H265.193ZM268.137 398.375H270.966C271.994 398.375 272.73 398.153 273.174 397.708C273.634 397.248 273.864 396.627 273.864 395.845C273.864 395.048 273.634 394.427 273.174 393.982C272.73 393.522 271.994 393.292 270.966 393.292H268.137V398.375ZM282.309 407.276C281.328 407.276 280.523 407.123 279.894 406.816C279.266 406.494 278.798 406.072 278.491 405.551C278.185 405.03 278.031 404.455 278.031 403.826C278.031 402.768 278.445 401.909 279.273 401.25C280.101 400.591 281.343 400.261 282.999 400.261H285.897V399.985C285.897 399.203 285.675 398.628 285.23 398.26C284.786 397.892 284.234 397.708 283.574 397.708C282.976 397.708 282.455 397.854 282.01 398.145C281.566 398.421 281.29 398.835 281.182 399.387H278.307C278.384 398.559 278.66 397.838 279.135 397.225C279.626 396.612 280.255 396.144 281.021 395.822C281.788 395.485 282.647 395.316 283.597 395.316C285.223 395.316 286.503 395.722 287.438 396.535C288.374 397.348 288.841 398.498 288.841 399.985V407H286.334L286.058 405.16C285.721 405.773 285.246 406.279 284.632 406.678C284.034 407.077 283.26 407.276 282.309 407.276ZM282.976 404.976C283.82 404.976 284.471 404.7 284.931 404.148C285.407 403.596 285.706 402.914 285.828 402.101H283.321C282.539 402.101 281.98 402.247 281.642 402.538C281.305 402.814 281.136 403.159 281.136 403.573C281.136 404.018 281.305 404.363 281.642 404.608C281.98 404.853 282.424 404.976 282.976 404.976ZM291.651 407V395.592H294.273L294.549 397.731C294.963 396.995 295.522 396.412 296.228 395.983C296.948 395.538 297.792 395.316 298.758 395.316V398.421H297.93C297.286 398.421 296.711 398.521 296.205 398.72C295.699 398.919 295.3 399.264 295.009 399.755C294.733 400.246 294.595 400.928 294.595 401.802V407H291.651ZM305.853 407C304.657 407 303.699 406.709 302.978 406.126C302.257 405.543 301.897 404.508 301.897 403.021V398.053H299.942V395.592H301.897L302.242 392.533H304.841V395.592H307.923V398.053H304.841V403.044C304.841 403.596 304.956 403.979 305.186 404.194C305.431 404.393 305.845 404.493 306.428 404.493H307.854V407H305.853ZM315.166 407.276C314.154 407.276 313.264 407.115 312.498 406.793C311.731 406.456 311.118 405.996 310.658 405.413C310.198 404.83 309.922 404.156 309.83 403.389H312.797C312.889 403.834 313.134 404.217 313.533 404.539C313.947 404.846 314.476 404.999 315.12 404.999C315.764 404.999 316.231 404.869 316.523 404.608C316.829 404.347 316.983 404.048 316.983 403.711C316.983 403.22 316.768 402.891 316.339 402.722C315.909 402.538 315.311 402.362 314.545 402.193C314.054 402.086 313.556 401.955 313.05 401.802C312.544 401.649 312.076 401.457 311.647 401.227C311.233 400.982 310.895 400.675 310.635 400.307C310.374 399.924 310.244 399.456 310.244 398.904C310.244 397.892 310.642 397.041 311.44 396.351C312.252 395.661 313.387 395.316 314.844 395.316C316.193 395.316 317.266 395.63 318.064 396.259C318.876 396.888 319.359 397.754 319.513 398.858H316.73C316.561 398.015 315.925 397.593 314.821 397.593C314.269 397.593 313.839 397.7 313.533 397.915C313.241 398.13 313.096 398.398 313.096 398.72C313.096 399.057 313.318 399.326 313.763 399.525C314.207 399.724 314.798 399.908 315.534 400.077C316.331 400.261 317.059 400.468 317.719 400.698C318.393 400.913 318.93 401.242 319.329 401.687C319.727 402.116 319.927 402.737 319.927 403.55C319.942 404.255 319.758 404.892 319.375 405.459C318.991 406.026 318.439 406.471 317.719 406.793C316.998 407.115 316.147 407.276 315.166 407.276Z" fill="#E81010"/>
<g filter="url(#filter0_d_2_6)">
<path d="M231 33L274.511 132.525L387.449 141.139L301.402 211.263L327.691 316.111L231 259.925L134.309 316.111L160.598 211.263L74.5512 141.139L187.489 132.525L231 33Z" fill="#EB0011"/>
</g>
<path d="M364.5 298.092C347.5 210 192 69.5 51 148.615C105.878 136.481 216.877 170.541 265.5 298.092C274.991 322.99 286.509 302.815 328.931 327.815L364.5 298.092Z" fill="white"/>
<g filter="url(#filter1_d_2_6)">
<path d="M216.556 203.897C193.485 175.353 162.945 145.72 80 145.72C83.375 143.49 111.222 133 127.036 133C142.625 130.77 168.657 129.895 208 142.74C217 146.457 246.591 157.081 282 193.74C298.189 210.501 303.5 221.24 344.5 249.24C357.5 255.74 385.1 264.219 431 258.154C416.375 268.263 374.462 294.265 337.434 294.265L335.916 311.74C315.184 306.834 289.112 295.503 273.202 280.785C251.091 260.332 255.128 251.619 216.556 203.897Z" fill="#E81010"/>
</g>
<defs>
<filter id="filter0_d_2_6" x="70.5512" y="33" width="320.898" height="291.111" filterUnits="userSpaceOnUse" color-interpolation-filters="sRGB">
<feFlood flood-opacity="0" result="BackgroundImageFix"/>
<feColorMatrix in="SourceAlpha" type="matrix" values="0 0 0 0 0 0 0 0 0 0 0 0 0 0 0 0 0 0 127 0" result="hardAlpha"/>
<feOffset dy="4"/>
<feGaussianBlur stdDeviation="2"/>
<feComposite in2="hardAlpha" operator="out"/>
<feColorMatrix type="matrix" values="0 0 0 0 0 0 0 0 0 0 0 0 0 0 0 0 0 0 0.25 0"/>
<feBlend mode="normal" in2="BackgroundImageFix" result="effect1_dropShadow_2_6"/>
<feBlend mode="normal" in="SourceGraphic" in2="effect1_dropShadow_2_6" result="shape"/>
</filter>
<filter id="filter1_d_2_6" x="76" y="131.679" width="359" height="188.061" filterUnits="userSpaceOnUse" color-interpolation-filters="sRGB">
<feFlood flood-opacity="0" result="BackgroundImageFix"/>
<feColorMatrix in="SourceAlpha" type="matrix" values="0 0 0 0 0 0 0 0 0 0 0 0 0 0 0 0 0 0 127 0" result="hardAlpha"/>
<feOffset dy="4"/>
<feGaussianBlur stdDeviation="2"/>
<feComposite in2="hardAlpha" operator="out"/>
<feColorMatrix type="matrix" values="0 0 0 0 0 0 0 0 0 0 0 0 0 0 0 0 0 0 0.25 0"/>
<feBlend mode="normal" in2="BackgroundImageFix" result="effect1_dropShadow_2_6"/>
<feBlend mode="normal" in="SourceGraphic" in2="effect1_dropShadow_2_6" result="shape"/>
</filter>
</defs>
</svg>
